<svg xmlns="http://www.w3.org/2000/svg" height="800" width="1200" viewBox="-14.60103 -9.518375 126.54226 57.11025"><path d="M12.8852 18.5737h-5.715l2.2754-7.9375c.5027-1.7462.635-2.9368.635-2.9368h.0794s.1058 1.2435.5556 2.9368zm2.9898 8.5196c-.4498 0-.8202-.291-.926-.6879v-.0264l-1.2965-4.498h-7.329l-1.3493 4.498c-.1059.3968-.5027.7143-.926.7143H.979c-.5292 0-.979-.4498-.979-.979 0-.1058.0265-.1851.053-.291v-.0264L7.3553 3.413c.1059-.4233.5027-.7144.9525-.7144h4.1804c.4234 0 .7938.291.926.6615l7.2761 22.4102c.0265.1058.053.2117.053.3175 0 .5292-.4234.979-.9526.979H15.875zm5.424-24.421c0-.3969.238-.7144.5556-.8731l3.0956-1.614C25.109.0794 25.3735 0 25.5852 0c.5292 0 .979.4233.979.979v20.3993c.0264 1.2171 1.0848 2.1696 2.3018 2.1696.5292 0 .979.4233.979.979v1.5875c0 .5291-.4233.979-.979.979h-1.0848c-3.5983 0-6.5087-2.9105-6.5087-6.5088V2.6722zm24.13 6.5352c.344.1587.582.5027.582.8996v16.7746c0 5.318-3.3073 7.8845-8.1756 8.0698-2.3548.1058-4.3392-.4498-5.9796-1.1642-.3704-.1588-.6085-.5027-.6085-.926 0-.1323.0264-.2382.053-.344l.529-1.3494c.1324-.3969.5028-.6879.9526-.6879.1323 0 .2646.0265.3704.0794 1.0583.3968 2.3548.6879 3.7042.6879 2.8575 0 3.8893-1.3494 3.8893-3.4925v-1.0319c-.635.344-1.6933.5821-3.2543.5821-4.4715 0-7.6994-3.4396-7.6994-9.0223 0-6.2442 3.2014-10.16 9.6044-10.16 2.4606 0 4.6037.4498 6.0325 1.0848-.0265 0 0 0 0 0zm-4.7096 14.552c-.4498.2911-1.1642.4499-1.8786.4499-2.6987 0-3.81-2.0109-3.81-6.2442 0-4.4715 1.1377-6.7204 3.9159-6.7204.7408 0 1.3493.1058 1.7727.3175zm18.0975.6615v-7.1173c-3.0692-.238-5.6092.8996-5.6092 3.8365 0 2.1696 1.2965 3.466 3.5454 3.466 1.4552 0 2.0638-.1852 2.0638-.1852zm5.2916-6.3235v7.2495c0 .397-.238.741-.6085.8997h-.0265c-1.6404.635-4.101 1.0848-7.0114 1.0848-5.6356 0-8.6254-2.0373-8.6254-5.9003 0-4.789 3.9423-6.985 10.9537-6.641-.1587-1.852-1.2435-2.9898-3.8629-2.9898-1.3494 0-2.6458.291-3.7042.688-.1058.0528-.238.0793-.3704.0793-.4498 0-.8202-.291-.9525-.688l-.5292-1.3493c-.0529-.1058-.0529-.2117-.0529-.344 0-.4233.2646-.7672.6086-.926 1.614-.7144 3.5983-1.27 5.9796-1.1642 4.8683.1853 8.1756 2.7517 8.1756 8.0698v1.9315zm2.6194-7.5935c0-.7673.5292-1.3759 1.2171-1.614 1.7992-.6085 4.154-.926 7.6994-.8202h.0264c.5292 0 .979.4233.979.979v1.3229c0 .5291-.4498.979-.979.979h-.1058c-1.2965-.106-2.884.1587-3.5719.4762v14.3139c-.0264.5292-.4498.9525-.979.9525H67.707c-.5292 0-.979-.4233-.979-.979v-.0528z" clip-rule="evenodd" fill="#0068a6" fill-rule="evenodd"/><path d="M80.5656 9.0752c0-.3175.1852-.635.4763-.8202.3175-.1852.7143-.1588 1.0054.0265l5.662 3.2543c.2911.1852.4763.4763.4763.8202 0 .3705-.2116.688-.5291.8732 0 0-5.6357 3.2543-5.6621 3.2808-.291.1587-.6615.1587-.9525 0-.3175-.1852-.5027-.5292-.4763-.8731v-2.6723z" fill="#00aeef"/><path d="M89.6408 14.2875c0-.3175.1852-.635.4763-.8202.3175-.1852.7144-.1588 1.0054.0264l5.662 3.2544c.2911.1588.4763.4763.4763.8202 0 .3704-.2116.688-.5291.8732 0 0-5.6357 3.2543-5.6621 3.2543-.291.1588-.6615.1588-.9525-.0264-.3175-.1852-.5027-.5292-.4763-.8732z" fill="#ffcb05"/><path d="M80.5656 19.5262c0-.3175.1852-.635.4763-.8202.3175-.1852.7143-.1587 1.0054.0265l5.662 3.2544c.2911.1587.4763.4762.4763.8202 0 .3704-.2116.7144-.5291.8731 0 0-5.6357 3.2544-5.6621 3.2544-.291.1587-.6615.1587-.9525-.0265-.3175-.1852-.5027-.5291-.4763-.8731v-2.6723z" fill="#00a651"/><path d="M63.8969 31.5119v-1.2171h-4.5244v1.217h1.3494v6.456h1.8256v-6.456zm3.5718 2.884l-2.1166.3174c-.053-1.2435.3969-1.852 1.1112-1.852.6615 0 1.0054.4762 1.0054 1.5345zm1.6405.635c.0793-2.0374-.8202-3.2015-2.5665-3.2015-1.7462 0-2.7252 1.217-2.7252 3.0956 0 1.905 1.0583 3.122 2.9369 3.122 1.0318 0 1.6933-.2116 2.1696-.4233l-.397-1.0847c-.3174.1587-.873.3175-1.5874.3175-.8996 0-1.3494-.4234-1.4552-1.323zM71.702 29.21h-1.7727v8.7312h1.7462V29.21zm4.498 5.1858l-2.1167.3175c-.0529-1.2435.397-1.852 1.1113-1.852.6614 0 1.0054.4762 1.0054 1.5345zm1.6404.635c.0794-2.0373-.8202-3.2014-2.5664-3.2014-1.7463 0-2.7253 1.217-2.7253 3.0956 0 1.905 1.0584 3.122 2.937 3.122 1.0318 0 1.6933-.2116 2.1695-.4233l-.3969-1.0847c-.3175.1587-.873.3175-1.5875.3175-.8996 0-1.3493-.4234-1.4552-1.323zm4.5773 2.593l-.3704-1.0584c-.1852.1588-.3969.2381-.7408.2381-.688 0-1.1113-.7143-1.1113-1.905 0-1.217.3704-1.905 1.1377-1.905.344 0 .5556.1059.7144.2382l.3704-.9525c-.2646-.2117-.7408-.4234-1.4817-.4234-1.3493 0-2.487 1.0584-2.487 3.0957 0 2.0108 1.0583 3.122 2.487 3.122.7409-.0264 1.2171-.2116 1.4817-.4498zm3.81-2.6988c0 1.0848-.1587 1.958-.926 1.958-.7673 0-.926-.8732-.926-1.958 0-1.0583.1587-2.0108.926-2.0108.7673 0 .926.926.926 2.0108zm1.7463.0265c0-1.7992-.926-3.0957-2.6988-3.0957-1.7462 0-2.6723 1.323-2.6723 3.0957s.926 3.122 2.6723 3.122c1.7727 0 2.6988-1.3493 2.6988-3.122zm9.3662 2.9897v-4.2068c0-1.0584-.7408-1.905-2.1696-1.905-1.0054 0-1.614.2646-2.0108.6085-.344-.344-.926-.6085-1.9315-.6085-1.0583 0-1.7727.1323-2.4606.4498v5.662h1.7463V33.02c.2116-.0794.3968-.1058.7143-.1058.6086 0 .9525.3175.9525.7937v4.2333h1.7463v-4.736c.2116-.2117.4498-.291.7673-.291.6085 0 .8731.344.8731.8202v4.2068z" fill="#808285"/></svg>