<?xml version="1.0" encoding="UTF-8"?>
<svg id="Layer_1" data-name="Layer 1" xmlns="http://www.w3.org/2000/svg" viewBox="0 0 1200 800">
  <defs>
    <style>
      .cls-1 {
        fill: #2e914e;
      }

      .cls-1, .cls-2 {
        fill-rule: evenodd;
        stroke-width: 0px;
      }
    </style>
  </defs>
  <path class="cls-2" d="M387.93,346.44c30.99,0,49.84,5.45,59.32,17.08,5.17,6.34,7.77,14.76,7.84,25.43.03,5.92-.72,12.54-2.24,19.9l-21.24,102.6c-2.94,14.18-4.72,25.05-4.67,34.04.01,2.85.28,5.5.69,8h-58.12c-.02-.64-.1-1.24-.11-1.9-.02-4.25.31-8.74.68-13.39l.61-8.4h-3.21l-1.27,1.99c-10.43,16.77-34.12,27.14-54.41,27.14-16.82,0-28.87-4.31-35.81-12.83-7.66-9.39-9.49-24.11-5.45-43.72,7.93-38.31,25.34-54.52,69.02-64.31l29-6.6c17.2-3.81,25.5-11.39,28.57-26.23,1.67-8.14.77-14.43-2.71-18.72-3.23-3.95-8.41-5.95-15.39-5.95-15.53,0-23.8,8.02-28.91,27.99h-51.86c13.95-53.86,61.82-62.11,89.66-62.11h0ZM387.29,452.06s-1.17,1.08-3.42,1.96c-3.67,1.42-11.81,2.74-16.86,4.01-3.91.98-8.31,2.1-13.07,4.09-12.66,5.37-19.2,14.14-22.56,30.3-1.96,9.45-.81,17.18,3.36,22.28,3.1,3.83,7.71,5.85,13.26,5.85,22.66,0,29.75-21.67,33.13-38l6.31-30.5h-.15l-6.15,30.5,6.15-30.49h0ZM595.6,535.37c-12.26-15.04-14.67-38.72-6.2-80.9,18.46-91.83,53.36-108.03,83.73-108.03,14.44,0,36.18,5.35,38.74,30.68l.4,3.94h4.21s4.94-23.83,6.01-29.15h56.46l-41.93,201.58c-9.96,48.15-40.88,72.14-97.6,72.14-52.55,0-60.35-30.99-61.53-40.58-.45-3.64.77-14.39.77-14.39h54.94v.05c.02,4.9.39,12.11,2.05,14.14,2.27,2.81,4.16,6.1,12.88,6.1,11.57,0,22.64-3.33,28.05-29.45l9.33-45.24h-4.5l-1.25,2.14c-11.25,19.47-32.21,29.32-54.29,29.32-13.59-.01-23.52-4.02-30.28-12.35h0ZM651.65,450.01c-6.17,29.89-5.91,41.38.13,48.8,3.01,3.7,7.5,5.48,13.7,5.48,17.17,0,25.55-10.42,34.27-52.49,6.22-30.12,6.86-49.25.9-56.6-2.93-3.57-7.21-5.34-13.12-5.34-17.73.01-27.2,18.1-35.89,60.15h0ZM869.5,351.92c-2,9.72-40.35,195.13-41.69,201.58h-61.12l41.73-201.58h61.08ZM981.74,284.67c-2.04,9.89-54.25,262.28-55.63,268.83h-61.12c2.04-9.92,54.27-262.3,55.64-268.83h61.11ZM1079.73,284.67c-2.07,9.89-54.29,262.28-55.67,268.83h-61.09c2.07-9.92,54.3-262.3,55.65-268.83h61.12ZM604.31,346.44c-20.03,0-43.86,14.01-55.5,36.54l-1.21,2.32h-4.47s5.38-25.99,6.89-33.39h-5.23v-.02h-58.14c.41,2.52.68,5.15.7,8.02.04,6.47-.89,13.94-2.5,22.91-11.33,54.74-33.81,163.28-35.33,170.67h61.14c3.91-18.93,22.98-111.23,22.98-111.23,5.75-27.77,22.03-40.7,51.19-40.7,5.03,0,9.45.29,13.81.93,1.36-6.55,9.9-47.79,11.59-56.05h-5.92ZM98.42,543c-15.27-18.74-15.95-53.19-2.32-118.95,21.75-105.12,53.2-140.6,124.6-140.6,28.53,0,48.56,6.8,59.5,20.23,7.08,8.67,10.66,20.51,10.74,35.36.05,8.09-.95,17.09-2.98,26.92l-2.92,14.06h-60.17s4.46-28.69,4.42-35.01c-.04-7.12-.32-10.97-3.04-14.56-2.82-3.72-7.02-6.7-13.6-6.7-26.59,0-35.33,25.33-50.48,98.53-11.76,56.82-15.97,82.9-6.88,94.04,3.44,4.2,8.63,6.25,15.91,6.25,20.94,0,29.2-17.96,39.72-67.92h60.61c-1.19,5.79-3.18,15.35-3.18,15.35-12.74,61.61-48.86,92.86-107.34,92.86-31.67-.01-51.57-6.34-62.61-19.86h0ZM1092.71,284.52h18.35l-.62,2.92h-7.55l-5.43,26.28h-3.23l5.43-26.28h-7.54l.59-2.92ZM1133.25,284.52h5.68l-6.04,29.2h-3.23l4.97-24.06c.25-1.25.59-2.45.76-3.69h-.07c-.7,1.71-1.2,2.8-1.72,3.93l-11.04,23.82h-3.84l-1.12-24.18c-.06-1.19-.1-2.38-.11-3.57h-.07c-.26,1.24-.44,2.52-.72,3.77l-4.96,23.98h-3.23l6.04-29.2h5.73l1,22.78c.06,1.24-.04,2.44-.28,4.32h.09c.5-1.48.99-2.93,1.65-4.36l10.51-22.74h0Z"/>
  <path class="cls-1" d="M874.72,328.13c4.81-110.79-128.78-193.96-253.46-168.1-124.63,25.85-184.86,134.36-200.61,167.87h20.38c27.28-45.89,54.9-81.51,101.99-94.78,29.91-8.43,53.4-6.5,111.25,25.77,26.64,14.87,86.94,59.57,151.71,68.5,28.15,3.88,68.75.73,68.75.73Z"/>
</svg>